<?xml version="1.0" standalone="no"?>
<svg xmlns:xlink="http://www.w3.org/1999/xlink" id="wave" style="transform:rotate(0deg); transition: 0.3s" viewBox="0 0 1440 490" version="1.1" xmlns="http://www.w3.org/2000/svg"><defs><linearGradient id="sw-gradient-0" x1="0" x2="0" y1="1" y2="0"><stop stop-color="rgba(241, 201, 75, 1)" offset="0%"/><stop stop-color="rgba(224, 180, 37, 1)" offset="100%"/></linearGradient></defs><path style="transform:translate(0, 0px); opacity:1" fill="url(#sw-gradient-0)" d="M0,441L120,416.5C240,392,480,343,720,269.5C960,196,1200,98,1440,89.8C1680,82,1920,163,2160,228.7C2400,294,2640,343,2880,375.7C3120,408,3360,425,3600,400.2C3840,376,4080,310,4320,294C4560,278,4800,310,5040,294C5280,278,5520,212,5760,163.3C6000,114,6240,82,6480,122.5C6720,163,6960,278,7200,302.2C7440,327,7680,261,7920,253.2C8160,245,8400,294,8640,285.8C8880,278,9120,212,9360,204.2C9600,196,9840,245,10080,236.8C10320,229,10560,163,10800,187.8C11040,212,11280,327,11520,351.2C11760,376,12000,310,12240,253.2C12480,196,12720,147,12960,171.5C13200,196,13440,294,13680,294C13920,294,14160,196,14400,204.2C14640,212,14880,327,15120,351.2C15360,376,15600,310,15840,302.2C16080,294,16320,343,16560,343C16800,343,17040,294,17160,269.5L17280,245L17280,490L17160,490C17040,490,16800,490,16560,490C16320,490,16080,490,15840,490C15600,490,15360,490,15120,490C14880,490,14640,490,14400,490C14160,490,13920,490,13680,490C13440,490,13200,490,12960,490C12720,490,12480,490,12240,490C12000,490,11760,490,11520,490C11280,490,11040,490,10800,490C10560,490,10320,490,10080,490C9840,490,9600,490,9360,490C9120,490,8880,490,8640,490C8400,490,8160,490,7920,490C7680,490,7440,490,7200,490C6960,490,6720,490,6480,490C6240,490,6000,490,5760,490C5520,490,5280,490,5040,490C4800,490,4560,490,4320,490C4080,490,3840,490,3600,490C3360,490,3120,490,2880,490C2640,490,2400,490,2160,490C1920,490,1680,490,1440,490C1200,490,960,490,720,490C480,490,240,490,120,490L0,490Z"/></svg>